<mxfile compressed="false" type="device">
    <diagram id="Page-1" name="Page-1">
      <mxGraphModel arrows="1" connect="1" dx="1360" dy="864" fold="1" grid="1" gridSize="10" guides="1" math="0" page="1" pageHeight="1169" pageScale="1" pageWidth="827" shadow="1" tooltips="1">
        <root>
          <mxCell id="0" />   
          <mxCell id="1" parent="0" />
        <object id="node-1" label="node-1">
      <mxCell parent="1" style="rounded=1;whiteSpace=wrap;html=1;" vertex="1">
          <mxGeometry as="geometry" height="60" width="120" x="200" y="150" />
      </mxCell>
    </object><object id="node-2" label="node-2">
      <mxCell parent="1" style="rounded=1;whiteSpace=wrap;html=1;" vertex="1">
          <mxGeometry as="geometry" height="60" width="120" x="200" y="150" />
      </mxCell>
    </object><object id="node-3" label="node-3">
      <mxCell parent="1" style="rounded=1;whiteSpace=wrap;html=1;" vertex="1">
          <mxGeometry as="geometry" height="60" width="120" x="200" y="150" />
      </mxCell>
    </object><mxCell connectable="0" id="947728752830898de867889aff4f80fe-src" parent="947728752830898de867889aff4f80fe" style="labelBackgroundColor=#ffffff;;" value="Gi1/1" vertex="1">
      <mxGeometry as="geometry" relative="1" x="-0.5">
        <mxPoint as="offset" />
      </mxGeometry>
    </mxCell><mxCell connectable="0" id="947728752830898de867889aff4f80fe-trgt" parent="947728752830898de867889aff4f80fe" style="labelBackgroundColor=#ffffff;;" value="Gi2/29" vertex="1">
      <mxGeometry as="geometry" relative="-1" x="0.5">
        <mxPoint as="offset" />
      </mxGeometry>
    </mxCell><object id="947728752830898de867889aff4f80fe" label="bla1" source="node-1" src_label="Gi1/1" target="node-2" trgt_label="Gi2/29">
      <mxCell edge="1" parent="1" source="node-1" style="endArrow=none;" target="node-2">
          <mxGeometry as="geometry" relative="1" />
      </mxCell>
    </object><mxCell connectable="0" id="a1fd6f6909b44008f26da00baf9b1261-src" parent="a1fd6f6909b44008f26da00baf9b1261" style="labelBackgroundColor=#ffffff;;" value="Gi2/2" vertex="1">
      <mxGeometry as="geometry" relative="1" x="-0.5">
        <mxPoint as="offset" />
      </mxGeometry>
    </mxCell><mxCell connectable="0" id="a1fd6f6909b44008f26da00baf9b1261-trgt" parent="a1fd6f6909b44008f26da00baf9b1261" style="labelBackgroundColor=#ffffff;;" value="Gi2/17" vertex="1">
      <mxGeometry as="geometry" relative="-1" x="0.5">
        <mxPoint as="offset" />
      </mxGeometry>
    </mxCell><object id="a1fd6f6909b44008f26da00baf9b1261" label="bla2" source="node-2" src_label="Gi2/2" target="node-3" trgt_label="Gi2/17">
      <mxCell edge="1" parent="1" source="node-2" style="endArrow=none;" target="node-3">
          <mxGeometry as="geometry" relative="1" />
      </mxCell>
    </object><mxCell connectable="0" id="1653adb2a19522594e5958a1429aaa8a-src" parent="1653adb2a19522594e5958a1429aaa8a" style="labelBackgroundColor=#ffffff;;" value="Gi3/6" vertex="1">
      <mxGeometry as="geometry" relative="1" x="-0.5">
        <mxPoint as="offset" />
      </mxGeometry>
    </mxCell><mxCell connectable="0" id="1653adb2a19522594e5958a1429aaa8a-trgt" parent="1653adb2a19522594e5958a1429aaa8a" style="labelBackgroundColor=#ffffff;;" value="Gi5/21" vertex="1">
      <mxGeometry as="geometry" relative="-1" x="0.5">
        <mxPoint as="offset" />
      </mxGeometry>
    </mxCell><object id="1653adb2a19522594e5958a1429aaa8a" label="bla3" source="node-3" src_label="Gi3/6" target="node-1" trgt_label="Gi5/21">
      <mxCell edge="1" parent="1" source="node-3" style="endArrow=none;" target="node-1">
          <mxGeometry as="geometry" relative="1" />
      </mxCell>
    </object></root>
      </mxGraphModel>
    </diagram></mxfile>